Coordinates
version=1
nRows=65
nColumns=12
inDegrees=yes

Units are S.I. units (second, meters, Newtons, ...)
Angles are in degrees

endheader
time	SC_y	SC_z	SC_x	AC_y	AC_z	AC_x	GH_y	GH_z	GH_yy	EL_x	PS_y
       0.0               -49.8          17.81           20.8          31.14         -11.45          10.29         -17.52          9.902          -70.9           59.0          123.1
   0.02807               -49.8          17.81           20.8          31.15         -11.45          10.29         -17.54          9.911         -70.91           59.0          123.1
   0.05614               -49.8          17.81          20.79          31.15         -11.45          10.29         -17.57          9.921         -70.92           59.0          123.1
   0.08421               -49.8          17.81          20.79          31.15         -11.45          10.28         -17.59          9.932         -70.93          58.99          123.1
    0.1123               -49.8          17.81          20.79          31.15         -11.44          10.28         -17.62          9.944         -70.94          58.99          123.1
    0.1403              -49.81          17.81          20.79          31.15         -11.44          10.27         -17.65          9.956         -70.96          58.99          123.1
    0.1684              -49.81          17.81          20.79          31.16         -11.44          10.27         -17.68          9.969         -70.97          58.99          123.1
    0.1965              -49.81          17.81          20.79          31.16         -11.44          10.26         -17.71          9.983         -70.99          58.99          123.0
    0.2246              -49.81          17.81          20.79          31.16         -11.44          10.25         -17.74          9.998         -71.01          58.99          123.0
    0.2526              -49.81          17.82          20.79          31.17         -11.44          10.25         -17.78          10.01         -71.03          58.99          123.0
    0.2807              -49.81          17.82          20.79          31.17         -11.44          10.24         -17.82          10.03         -71.05          58.99          123.0
    0.3088              -49.81          17.82          20.79          31.17         -11.44          10.23         -17.86          10.05         -71.07          58.99          123.0
    0.3368              -49.82          17.82          20.79          31.18         -11.44          10.23         -17.91          10.07         -71.09          58.99          122.9
    0.3649              -49.82          17.82          20.78          31.18         -11.44          10.22         -17.96          10.09         -71.12          58.98          122.9
     0.393              -49.82          17.82          20.78          31.18         -11.43          10.21         -18.01          10.11         -71.15          58.98          122.9
     0.421              -49.82          17.82          20.78          31.19         -11.43           10.2         -18.07          10.14         -71.18          58.98          122.9
    0.4491              -49.82          17.82          20.78           31.2         -11.43          10.19         -18.14          10.17         -71.21          58.98          122.9
    0.4772              -49.83          17.82          20.78           31.2         -11.43          10.17         -18.21           10.2         -71.24          58.98          122.8
    0.5053              -49.83          17.82          20.78          31.21         -11.43          10.16         -18.28          10.23         -71.28          58.98          122.8
    0.5333              -49.83          17.82          20.77          31.21         -11.42          10.15         -18.36          10.27         -71.32          58.97          122.8
    0.5614              -49.84          17.82          20.77          31.22         -11.42          10.13         -18.45           10.3         -71.37          58.97          122.7
    0.5895              -49.84          17.83          20.77          31.23         -11.42          10.11         -18.56          10.35         -71.42          58.97          122.7
    0.6175              -49.84          17.83          20.77          31.24         -11.42           10.1         -18.67           10.4         -71.48          58.97          122.6
    0.6456              -49.85          17.83          20.76          31.25         -11.41          10.07         -18.79          10.45         -71.54          58.96          122.6
    0.6737              -49.85          17.83          20.76          31.26         -11.41          10.05         -18.92          10.51         -71.61          58.96          122.5
    0.7017              -49.86          17.83          20.76          31.27          -11.4          10.02         -19.08          10.57         -71.69          58.95          122.4
    0.7298              -49.86          17.84          20.75          31.29          -11.4          9.995         -19.25          10.65         -71.77          58.95          122.4
    0.7579              -49.87          17.84          20.75          31.31         -11.39          9.962         -19.44          10.73         -71.87          58.95          122.3
     0.786              -49.88          17.84          20.74          31.32         -11.39          9.924         -19.66          10.82         -71.98          58.94          122.2
     0.814              -49.89          17.84          20.73          31.34         -11.38          9.882          -19.9          10.93         -72.11          58.93          122.1
    0.8421               -49.9          17.85          20.73          31.37         -11.37          9.833         -20.18          11.05         -72.25          58.93          122.0
    0.8702              -49.91          17.85          20.72           31.4         -11.36          9.778          -20.5          11.19         -72.41          58.92          121.8
    0.8982              -49.92          17.86          20.71          31.43         -11.35          9.714         -20.88          11.35          -72.6          58.91          121.7
    0.9263              -49.94          17.86           20.7          31.46         -11.34          9.639         -21.31          11.54         -72.82           58.9          121.5
    0.9544              -49.96          17.87          20.68          31.51         -11.33          9.552         -21.81          11.76         -73.08          58.88          121.2
    0.9824              -49.98          17.88          20.67          31.56         -11.31          9.449         -22.41          12.01         -73.38          58.87          121.0
     1.011              -50.01          17.89          20.65          31.62         -11.29          9.326         -23.12          12.32         -73.74          58.85          120.7
     1.039              -50.04           17.9          20.63          31.69         -11.27           9.18         -23.97          12.69         -74.17          58.82          120.3
     1.067              -50.08          17.91           20.6          31.78         -11.24          9.002          -25.0          13.13          -74.7           58.8          119.9
     1.095              -50.12          17.93          20.57          31.88         -11.21          8.786         -26.25          13.67         -75.33          58.76          119.3
     1.123              -50.18          17.95          20.53          32.01         -11.16          8.518          -27.8          14.34         -76.12          58.72          118.6
     1.151              -50.25          17.98          20.48          32.18         -11.11          8.185         -29.73          15.17          -77.1          58.67          117.8
     1.179              -50.34          18.01          20.41          32.38         -11.04          7.764         -32.17          16.22         -78.34           58.6          116.7
     1.207              -50.46          18.05          20.33          32.65         -10.96           7.23         -35.26          17.56         -79.92          58.52          115.4
     1.235               -50.6           18.1          20.23          32.98         -10.85          6.547         -39.22          19.27         -81.93          58.42          113.6
     1.263              -50.79          18.17          20.09          33.41         -10.71          5.669          -44.3          21.46         -84.51          58.28          111.4
     1.291              -51.03          18.26          19.92          33.96         -10.53          4.549         -50.79          24.27         -87.81          58.11          108.6
     1.319              -51.33          18.37          19.71          34.65          -10.3           3.14         -58.95          27.79         -91.96          57.89          105.0
     1.347               -51.7           18.5          19.45          35.49         -10.03          1.422          -68.9          32.08         -97.02          57.62          100.7
     1.375              -52.12          18.66          19.15          36.47         -9.713        -0.5679         -80.43          37.06         -102.9          57.31          95.66
     1.403              -52.58          18.82          18.82          37.53         -9.369         -2.723         -92.91          42.45         -109.2          56.98          90.21
     1.432              -53.04          18.99          18.49          38.58         -9.024         -4.878         -105.4          47.84         -115.6          56.65          84.77
      1.46              -53.47          19.15          18.19          39.56         -8.707         -6.869         -116.9          52.81         -121.4          56.34          79.73
     1.488              -53.83          19.28          17.93           40.4         -8.432         -8.586         -126.9          57.11         -126.5          56.07          75.39
     1.516              -54.13          19.39          17.71          41.09         -8.207         -9.995         -135.0          60.63         -130.6          55.85          71.83
     1.544              -54.37          19.48          17.54          41.64         -8.028         -11.12         -141.5          63.43         -133.9          55.68           69.0
     1.572              -54.56          19.54          17.41          42.07         -7.888         -11.99         -146.6          65.63         -136.5          55.54          66.78
       1.6              -54.71           19.6          17.31          42.41         -7.779         -12.68         -150.6          67.34         -138.5          55.44          65.05
     1.628              -54.82          19.64          17.22          42.67         -7.694         -13.21         -153.7          68.67         -140.1          55.35           63.7
     1.656              -54.91          19.67          17.16          42.88         -7.627         -13.63         -156.1          69.72         -141.4          55.29          62.64
     1.684              -54.98           19.7          17.11          43.04         -7.573         -13.96         -158.0          70.56         -142.3          55.24           61.8
     1.712              -55.04          19.72          17.07          43.17         -7.531         -14.23         -159.6          71.23         -143.1           55.2          61.12
      1.74              -55.09          19.73          17.04          43.28         -7.496         -14.45         -160.8          71.77         -143.8          55.16          60.57
     1.768              -55.12          19.75          17.01          43.37         -7.468         -14.63         -161.9          72.21         -144.3          55.13          60.12
     1.796              -55.16          19.76          16.99          43.44         -7.444         -14.77         -162.7          72.58         -144.7          55.11          59.75
